<svg width="296" height="265" viewBox="0 0 296 265" fill="none" xmlns="http://www.w3.org/2000/svg">
    <path d="M167.5 222.5C150.7 188.1 194.167 80.8333 218 31.5C243.5 50.5 181.306 121 187 205C189.021 234.81 217.167 257.333 229 264C215.5 264.5 184.3 256.9 167.5 222.5Z"
          fill="url(#paint0_linear_15_8)" stroke="url(#paint1_linear_15_8)"/>
    <path fill-rule="evenodd" clip-rule="evenodd"
          d="M264.5 4.50251C215.5 -8.49786 136.2 15.8025 125 59.0025C121.698 71.7399 119.174 89.5682 116.373 109.357C116.09 111.361 115.803 113.384 115.513 115.425C85.7736 112.269 57.1171 106.688 32.5285 101.899C23.4281 100.127 14.885 98.4632 7.05031 97.071C0.818769 95.9637 -1.05136 102.18 4.78462 104.629C30.6244 115.474 70.2755 128.136 112.584 135.324C103.501 194.144 88.6693 257.999 44.5 257.002C72.8199 259.943 129.892 228.207 148.434 139.909C163.854 141.188 179.215 141.498 194 140.5C251.244 136.637 279.273 112.578 294.736 76.6478C296.058 73.5755 291.82 71.1715 289.457 73.539C253.677 109.39 203.064 118.965 152.082 117.855C163.163 30.9376 196.169 17.9688 264.5 4.50251Z"
          fill="url(#paint2_linear_15_8)"/>
    <path d="M125 59.0025L125.484 59.128L125.484 59.128L125 59.0025ZM264.5 4.50251L264.597 4.99307L264.628 4.01923L264.5 4.50251ZM116.373 109.357L115.878 109.287L115.878 109.287L116.373 109.357ZM115.513 115.425L115.46 115.922L115.94 115.973L116.008 115.495L115.513 115.425ZM32.5285 101.899L32.624 101.408L32.624 101.408L32.5285 101.899ZM7.05031 97.071L6.96283 97.5633L6.96283 97.5633L7.05031 97.071ZM4.78462 104.629L4.59112 105.09L4.59112 105.09L4.78462 104.629ZM112.584 135.324L113.078 135.4L113.154 134.914L112.668 134.831L112.584 135.324ZM44.5 257.002L44.5113 256.503L44.4483 257.5L44.5 257.002ZM148.434 139.909L148.475 139.411L148.035 139.374L147.944 139.806L148.434 139.909ZM194 140.5L194.034 140.999L194.034 140.999L194 140.5ZM294.736 76.6478L294.277 76.4502L294.277 76.4502L294.736 76.6478ZM289.457 73.539L289.811 73.8922L289.811 73.8922L289.457 73.539ZM152.082 117.855L151.586 117.792L151.516 118.343L152.071 118.355L152.082 117.855ZM125.484 59.128C131.02 37.7743 153.441 20.9811 180.744 11.1478C208.023 1.32363 239.992 -1.48254 264.372 4.98579L264.628 4.01923C240.008 -2.51281 207.827 0.33102 180.406 10.2069C153.009 20.0737 130.18 37.0308 124.516 58.877L125.484 59.128ZM116.869 109.427C119.671 89.6266 122.19 71.8315 125.484 59.128L124.516 58.877C121.205 71.6483 118.678 89.5098 115.878 109.287L116.869 109.427ZM116.008 115.495C116.299 113.455 116.585 111.431 116.869 109.427L115.878 109.287C115.595 111.291 115.308 113.314 115.018 115.354L116.008 115.495ZM115.566 114.928C85.8511 111.774 57.2151 106.198 32.624 101.408L32.4329 102.39C57.0192 107.178 85.6961 112.763 115.46 115.922L115.566 114.928ZM32.624 101.408C23.5247 99.6364 14.9773 97.9717 7.13778 96.5787L6.96283 97.5633C14.7926 98.9546 23.3315 100.618 32.4329 102.39L32.624 101.408ZM7.13778 96.5787C3.86529 95.9972 1.52752 97.3267 0.913266 99.3724C0.298155 101.421 1.52559 103.803 4.59112 105.09L4.97812 104.168C2.20767 103.005 1.45218 101.055 1.87102 99.66C2.29072 98.2622 4.00379 97.0375 6.96283 97.5633L7.13778 96.5787ZM4.59112 105.09C30.4642 115.949 70.152 128.622 112.5 135.817L112.668 134.831C70.399 127.65 30.7846 114.999 4.97812 104.168L4.59112 105.09ZM44.4887 257.502C66.8832 258.007 81.7653 242.049 92.156 218.798C102.551 195.539 108.537 164.81 113.078 135.4L112.09 135.248C107.549 164.658 101.577 195.266 91.243 218.39C80.9047 241.523 66.2861 256.994 44.5113 256.503L44.4887 257.502ZM147.944 139.806C138.692 183.864 119.836 213.777 99.7941 232.303C79.7351 250.845 58.5232 257.956 44.5516 256.505L44.4483 257.5C58.7967 258.989 80.2806 251.703 100.473 233.037C120.682 214.356 139.633 184.252 148.923 140.012L147.944 139.806ZM148.392 140.407C163.833 141.688 179.219 141.999 194.034 140.999L193.966 140.001C179.211 140.997 163.875 140.688 148.475 139.411L148.392 140.407ZM194.034 140.999C222.719 139.063 244.13 132.064 260.317 121.012C276.508 109.958 287.435 94.877 295.195 76.8455L294.277 76.4502C286.574 94.349 275.754 109.262 259.754 120.186C243.75 131.112 222.525 138.074 193.966 140.001L194.034 140.999ZM295.195 76.8455C295.977 75.0285 295.089 73.4087 293.729 72.6208C292.378 71.8385 290.471 71.8145 289.103 73.1858L289.811 73.8922C290.805 72.896 292.199 72.8903 293.228 73.4862C294.247 74.0765 294.817 75.1949 294.277 76.4502L295.195 76.8455ZM289.103 73.1858C253.466 108.893 203.022 118.464 152.093 117.355L152.071 118.355C203.106 119.466 253.888 109.886 289.811 73.8922L289.103 73.1858ZM264.403 4.01195C230.253 10.7422 204.787 17.3676 186.495 33.2571C168.179 49.1664 157.133 74.2861 151.586 117.792L152.578 117.918C158.113 74.5064 169.11 49.683 187.15 34.0121C205.214 18.3213 230.417 11.7291 264.597 4.99307L264.403 4.01195Z"
          fill="url(#paint3_linear_15_8)"/>
    <defs>
        <linearGradient id="paint0_linear_15_8" x1="196.367" y1="31.5" x2="201" y2="531" gradientUnits="userSpaceOnUse">
            <stop stop-color="#2F4A72"/>
            <stop offset="1" stop-color="#9617D2" stop-opacity="0"/>
        </linearGradient>
        <linearGradient id="paint1_linear_15_8" x1="196.367" y1="31.5" x2="196.367" y2="264.023"
                        gradientUnits="userSpaceOnUse">
            <stop stop-color="#3E25D8"/>
            <stop offset="1" stop-color="#62824E" stop-opacity="0"/>
        </linearGradient>
        <linearGradient id="paint2_linear_15_8" x1="141.25" y1="7.99781" x2="141" y2="432.998"
                        gradientUnits="userSpaceOnUse">
            <stop stop-color="#F1F52B"/>
            <stop offset="1" stop-color="#0CAB68" stop-opacity="0"/>
        </linearGradient>
        <linearGradient id="paint3_linear_15_8" x1="148.124" y1="1" x2="148.124" y2="257.188"
                        gradientUnits="userSpaceOnUse">
            <stop stop-color="#D4D825"/>
            <stop offset="1" stop-color="#62824E" stop-opacity="0"/>
        </linearGradient>
    </defs>
</svg>
